<svg xmlns="http://www.w3.org/2000/svg" viewBox="0 0 209.08 25.3">
 <defs>
  <style>.cls-1{fill:#fff;}.cls-2{fill:#ffb82b;}</style>
 </defs>
 <path class="cls-1" d="M44.72,25a.72.72,0,0,1-.75-.75V8.17H38.51a.72.72,0,0,1-.72-.72V4.75A.73.73,0,0,1,38,4.21.69.69,0,0,1,38.51,4H54.23a.72.72,0,0,1,.75.75v2.7a.69.69,0,0,1-.21.51.73.73,0,0,1-.54.21H48.8V24.25a.72.72,0,0,1-.75.75Zm11.75,0a.69.69,0,0,1-.51-.21.73.73,0,0,1-.21-.54V10.15A.69.69,0,0,1,56,9.64a.65.65,0,0,1,.51-.24h2.94a.83.83,0,0,1,.75.75v1.2A5.14,5.14,0,0,1,62,9.91a6,6,0,0,1,2.55-.51h1.29a.69.69,0,0,1,.51.21.73.73,0,0,1,.21.54v2.58a.73.73,0,0,1-.21.54.69.69,0,0,1-.51.21H63.19a2.8,2.8,0,0,0-2.07.75,2.74,2.74,0,0,0-.75,2.07v8a.72.72,0,0,1-.75.75Zm16.64.3a6.55,6.55,0,0,1-2.85-.6,5.36,5.36,0,0,1-2-1.68,4.11,4.11,0,0,1,1-5.7,10.76,10.76,0,0,1,4.56-1.68l3.93-.57v-.54a2.69,2.69,0,0,0-.54-1.8,2.39,2.39,0,0,0-1.89-.63,2.88,2.88,0,0,0-1.59.39,2.68,2.68,0,0,0-.93,1,.76.76,0,0,1-.69.39H69.21a.69.69,0,0,1-.51-.18.61.61,0,0,1-.15-.48,2.53,2.53,0,0,1,.39-1.2,4.9,4.9,0,0,1,1.2-1.35,6.57,6.57,0,0,1,2.07-1.14A9.25,9.25,0,0,1,75.3,9.1a10.3,10.3,0,0,1,3.24.45,5.42,5.42,0,0,1,2.16,1.26,5.08,5.08,0,0,1,1.2,1.89A6.5,6.5,0,0,1,82.29,15v9.27a.72.72,0,0,1-.75.75H78.6a.69.69,0,0,1-.51-.21.73.73,0,0,1-.21-.54V23.14a4.84,4.84,0,0,1-1,1.08,5.61,5.61,0,0,1-1.59.78A6.76,6.76,0,0,1,73.11,25.3Zm1.2-3.12a3.67,3.67,0,0,0,1.77-.42,3,3,0,0,0,1.23-1.29,4.74,4.74,0,0,0,.45-2.19v-.51L75,18.22A5.79,5.79,0,0,0,72.6,19a1.59,1.59,0,0,0-.75,1.32,1.55,1.55,0,0,0,.33,1,2.2,2.2,0,0,0,.93.63A3.44,3.44,0,0,0,74.31,22.18ZM86.64,25a.69.69,0,0,1-.51-.21.73.73,0,0,1-.21-.54V10.15a.73.73,0,0,1,.21-.54.69.69,0,0,1,.51-.21h2.94a.72.72,0,0,1,.75.75v1.17a6.17,6.17,0,0,1,2-1.59,6.52,6.52,0,0,1,3-.63,5.79,5.79,0,0,1,3.09.81,5.27,5.27,0,0,1,2.11,2.31,7.86,7.86,0,0,1,.78,3.66v8.37a.66.66,0,0,1-.25.54.69.69,0,0,1-.5.21H97.38a.72.72,0,0,1-.75-.75V16.06a3.56,3.56,0,0,0-.78-2.46,2.72,2.72,0,0,0-2.22-.9,2.93,2.93,0,0,0-2.25.9,3.4,3.4,0,0,0-.84,2.46v8.19a.73.73,0,0,1-.21.54.69.69,0,0,1-.51.21Zm24.42.3a10.87,10.87,0,0,1-3.21-.42,7.77,7.77,0,0,1-2.16-1.08,5.56,5.56,0,0,1-1.23-1.26,2.67,2.67,0,0,1-.42-1.11.61.61,0,0,1,.21-.54.73.73,0,0,1,.48-.21h2.91a.57.57,0,0,1,.18,0,.4.4,0,0,1,.18.15,10,10,0,0,1,.81.63,4.51,4.51,0,0,0,1,.57,3.64,3.64,0,0,0,1.41.24,3.37,3.37,0,0,0,1.68-.39,1.31,1.31,0,0,0,.69-1.17,1.28,1.28,0,0,0-.33-.9,2.68,2.68,0,0,0-1.17-.66,23.08,23.08,0,0,0-2.58-.66,11.11,11.11,0,0,1-2.76-1,4.37,4.37,0,0,1-1.71-1.5,4.17,4.17,0,0,1-.57-2.22,4,4,0,0,1,.72-2.25,5.46,5.46,0,0,1,2.19-1.77,8,8,0,0,1,3.6-.72,8.92,8.92,0,0,1,2.88.42,6.85,6.85,0,0,1,2.1,1,4.7,4.7,0,0,1,1.26,1.26,2.25,2.25,0,0,1,.48,1.11.6.6,0,0,1-.18.51.66.66,0,0,1-.48.21h-2.67a1.12,1.12,0,0,1-.27,0,.8.8,0,0,1-.21-.15q-.36-.24-.75-.54a3.45,3.45,0,0,0-.87-.57,3.12,3.12,0,0,0-1.32-.24,2.33,2.33,0,0,0-1.53.45,1.34,1.34,0,0,0-.51,1.08,1.27,1.27,0,0,0,.27.78,2.4,2.4,0,0,0,1.11.66,18.73,18.73,0,0,0,2.55.63A9.59,9.59,0,0,1,116,16.78a4.45,4.45,0,0,1,1.71,1.68,3.93,3.93,0,0,1,.54,2,4.07,4.07,0,0,1-.84,2.52A5.59,5.59,0,0,1,115,24.7,11.2,11.2,0,0,1,111.06,25.3Zm10.83-.3a.69.69,0,0,1-.51-.21.73.73,0,0,1-.21-.54V10.15a.73.73,0,0,1,.21-.54.69.69,0,0,1,.51-.21h3a.72.72,0,0,1,.75.75v14.1a.72.72,0,0,1-.75.75ZM121.8,7a.69.69,0,0,1-.51-.21.73.73,0,0,1-.21-.54V3.85a.73.73,0,0,1,.21-.54.65.65,0,0,1,.51-.24H125a.68.68,0,0,1,.54.24.68.68,0,0,1,.24.54v2.4a.68.68,0,0,1-.24.54A.73.73,0,0,1,125,7Zm15.1,18a7.65,7.65,0,0,1-3.18-.6,4.35,4.35,0,0,1-2-1.92,7.08,7.08,0,0,1-.66-3.24v-6.3h-2.34a.72.72,0,0,1-.75-.75v-2a.72.72,0,0,1,.75-.75h2.34V4.45a.73.73,0,0,1,.21-.54.8.8,0,0,1,.54-.21h2.94a.72.72,0,0,1,.75.75v5h3.75a.69.69,0,0,1,.51.21.73.73,0,0,1,.21.54v2a.73.73,0,0,1-.21.54.69.69,0,0,1-.51.21h-3.75v5.94a3.54,3.54,0,0,0,.39,1.8,1.6,1.6,0,0,0,1.44.63h2.19a.72.72,0,0,1,.72.72v2.22a.73.73,0,0,1-.21.54.69.69,0,0,1-.51.21Zm7,0a.72.72,0,0,1-.75-.75V4.75a.72.72,0,0,1,.75-.75h13.38a.72.72,0,0,1,.75.75V7.3a.72.72,0,0,1-.75.75h-9.45v5.07h8.85a.72.72,0,0,1,.75.75v2.55a.69.69,0,0,1-.21.51.73.73,0,0,1-.54.21h-8.85v7.11a.72.72,0,0,1-.75.75Zm17.95,0a.72.72,0,0,1-.75-.75V4.45a.72.72,0,0,1,.75-.75h3a.69.69,0,0,1,.51.21.73.73,0,0,1,.21.54v19.8a.73.73,0,0,1-.21.54.69.69,0,0,1-.51.21Zm14.65.3a9.57,9.57,0,0,1-4.17-.81,6.05,6.05,0,0,1-2.58-2.37,7.81,7.81,0,0,1-1-3.57q0-.6,0-1.35t0-1.35a7.26,7.26,0,0,1,1-3.57,6.05,6.05,0,0,1,2.61-2.34,10.26,10.26,0,0,1,8.13,0,6.05,6.05,0,0,1,2.61,2.34,7.26,7.26,0,0,1,1,3.57,13.11,13.11,0,0,1,.06,1.35q0,.75-.06,1.35a7.59,7.59,0,0,1-1,3.57,5.86,5.86,0,0,1-2.55,2.37A9.49,9.49,0,0,1,176.53,25.3Zm0-3.3a2.72,2.72,0,0,0,2.22-.9,4.47,4.47,0,0,0,.81-2.7q0-.45,0-1.2t0-1.2a4.42,4.42,0,0,0-.81-2.67,2.68,2.68,0,0,0-2.22-.93,2.77,2.77,0,0,0-2.25.93,4.42,4.42,0,0,0-.81,2.67q0,.45,0,1.2t0,1.2a4.47,4.47,0,0,0,.81,2.7A2.82,2.82,0,0,0,176.53,22Zm14.73,3a1,1,0,0,1-.66-.21,1.45,1.45,0,0,1-.33-.54L186,10.36a.8.8,0,0,1-.06-.3.61.61,0,0,1,.18-.45.66.66,0,0,1,.48-.21h2.64a.81.81,0,0,1,.6.21,1.06,1.06,0,0,1,.27.39l2.73,9.27,2.91-9.21a1,1,0,0,1,.27-.42.89.89,0,0,1,.66-.24h1.71a.79.79,0,0,1,.63.24.92.92,0,0,1,.3.42l2.91,9.21L204.94,10a.77.77,0,0,1,.24-.39.88.88,0,0,1,.6-.21h2.64a.73.73,0,0,1,.66.66,1.53,1.53,0,0,1,0,.3l-4.32,13.89a1.07,1.07,0,0,1-.33.54.86.86,0,0,1-.63.21h-2.31a1,1,0,0,1-.66-.21,1.29,1.29,0,0,1-.36-.54l-2.91-8.88-3,8.88a1.07,1.07,0,0,1-.33.54,1,1,0,0,1-.66.21Z"/>
 <rect class="cls-2" x="1.79" y="1.79" width="9.78" height="9.78" transform="translate(-2.45 4.24) rotate(-30)"/>
 <rect class="cls-2" x="4.13" y="15" width="10" height="10"/>
 <rect class="cls-2" x="18.13" y="2" width="10" height="10"/>
 <rect class="cls-2" x="18.13" y="15" width="10" height="10"/>
</svg>